<svg xmlns="http://www.w3.org/2000/svg" viewBox="0 0 1440 320" width="1440" height="320">
  <path fill="#0099ff" fill-opacity="0.6" d="M0,160L48,170.7C96,181,192,203,288,197.3C384,192,480,160,576,149.3C672,139,768,149,864,170.7C960,192,1056,224,1152,218.7C1248,213,1344,171,1392,149.3L1440,128L1440,320L1392,320C1344,320,1248,320,1152,320C1056,320,960,320,864,320C768,320,672,320,576,320C480,320,384,320,288,320C192,320,96,320,48,320L0,320Z"/>
  <path fill="#0077cc" fill-opacity="0.5" d="M0,224L48,213.3C96,203,192,181,288,186.7C384,192,480,224,576,234.7C672,245,768,235,864,213.3C960,192,1056,160,1152,154.7C1248,149,1344,171,1392,181.3L1440,192L1440,320L1392,320C1344,320,1248,320,1152,320C1056,320,960,320,864,320C768,320,672,320,576,320C480,320,384,320,288,320C192,320,96,320,48,320L0,320Z"/>
  <path fill="#005599" fill-opacity="0.4" d="M0,256L48,261.3C96,267,192,277,288,272C384,267,480,245,576,240C672,235,768,245,864,256C960,267,1056,277,1152,272C1248,267,1344,245,1392,234.7L1440,224L1440,320L1392,320C1344,320,1248,320,1152,320C1056,320,960,320,864,320C768,320,672,320,576,320C480,320,384,320,288,320C192,320,96,320,48,320L0,320Z"/>
</svg>
